<svg width="234" height="234" viewBox="0 0 234 234" fill="none" xmlns="http://www.w3.org/2000/svg">
<path d="M170.991 171.999C139.396 171.999 121 153.942 121 125.501V61.999H154.332V72.2306C154.332 85.3223 158.991 95.329 170.997 95.329C182.845 95.329 187.668 85.1718 187.668 72.2306V61.999H221V125.501C221 153.942 202.585 171.999 170.991 171.999Z" fill="black"/>
<path d="M60.0752 58.999C95.7909 58.9992 120 81.4205 120 116.921C120 152.421 95.791 174.999 60.0752 174.999C24.2097 174.999 0 152.422 0 116.921C0.000124868 81.4204 24.2098 58.999 60.0752 58.999ZM53 120.199C53 120.202 53 120.205 53 120.207C53.0001 122.218 53.6914 123.94 54.9658 125.157C56.2352 126.369 57.9968 126.999 59.9922 126.999C61.9941 126.999 63.7595 126.37 65.0312 125.158C66.3083 123.941 66.9999 122.218 67 120.207C67 120.205 67 120.202 67 120.199H66C66 120.202 66 120.205 66 120.207C65.9999 123.757 63.5787 125.999 59.9922 125.999C56.4208 125.999 54.0001 123.757 54 120.207C54 120.205 54 120.202 54 120.199H53Z" fill="black"/>
<path d="M227.008 49.3994C229.003 49.3995 230.765 50.0281 232.034 51.2402C233.309 52.4575 234 54.1804 234 56.1914C234 58.2021 233.309 59.9277 232.035 61.1484C230.766 62.3646 229.005 62.999 227.008 62.999C225.004 62.999 223.239 62.3648 221.968 61.1484C220.692 59.9275 220 58.2021 220 56.1914C220 54.1804 220.692 52.4576 221.969 51.2402C223.24 50.028 225.006 49.3994 227.008 49.3994ZM227.008 50.3994C223.421 50.3994 221 52.6413 221 56.1914C221 59.7413 223.421 61.999 227.008 61.999C230.579 61.9989 233 59.7412 233 56.1914C233 52.6415 230.579 50.3996 227.008 50.3994ZM230.479 52.4189C230.756 52.4189 230.979 52.6429 230.979 52.9189C230.98 53.1951 230.756 53.4189 230.479 53.4189H226.795C225.26 53.4189 224.015 54.6835 224.015 56.2188C224.015 57.7322 225.241 58.9795 226.755 58.9795H227.709C228.689 58.9792 229.485 58.1876 229.49 57.208V57.1719C229.496 56.204 228.712 55.416 227.744 55.416H226.786C226.357 55.4162 226.008 55.763 226.005 56.1924C226.002 56.6258 226.353 56.9793 226.786 56.9795H227.988C228.265 56.9795 228.49 57.2035 228.49 57.4805C228.49 57.7563 228.267 57.9799 227.991 57.9814L226.759 57.9893C225.791 57.9946 225.004 57.2085 225.009 56.2402V56.1943C225.013 55.2111 225.812 54.416 226.795 54.416H227.747C229.266 54.4161 230.495 55.6699 230.489 57.1885C230.484 58.7205 229.24 59.9785 227.708 59.9785H226.756C224.692 59.9783 223.02 58.2843 223.02 56.2207C223.02 54.1331 224.712 52.4189 226.8 52.4189H230.479Z" fill="black"/>
</svg>
